<svg width="124" height="124" viewBox="0 0 124 124" fill="none" xmlns="http://www.w3.org/2000/svg">
    <g clip-path="url(#clip0_102_675)">
        <path
            d="M65.4186 62.6071C8.46486 84.7924 -23.5412 21.356 -71.0042 43.1746C-99.6995 51.1507 -193.084 76.3368 -195.146 79.106C-197.207 81.8752 -195.353 139.868 -194.167 168.518L242.514 198.467C269.82 165.633 273.205 98.5322 237.352 65.7294C192.536 24.7259 122.372 40.4217 65.4186 62.6071Z"
            fill="#062865" />
        <path fill-rule="evenodd" clip-rule="evenodd"
            d="M-8.0191 48.6474C13.5303 59.267 36.189 70.4332 65.4187 59.0473C66.1198 58.7742 66.823 58.5021 67.528 58.231C44.0197 44.7494 15.8971 42.4939 -12.8548 46.2752C-11.2476 47.0564 -9.63647 47.8503 -8.0191 48.6474ZM-150.907 61.7457C-154.511 60.0817 -158.063 58.3316 -161.585 56.5961C-182.024 46.5235 -201.465 36.9427 -224.57 47.5635C-229.521 48.9399 -236.399 50.8286 -244.401 53.0261C-282.773 63.5641 -347.005 81.2036 -348.711 83.495C-350.773 86.2642 -348.918 144.257 -347.733 172.907L88.9489 202.856C93.2339 197.704 96.9299 191.707 99.9776 185.132L-194.167 164.959C-195.352 136.308 -197.207 78.3155 -195.146 75.5462C-194.215 74.2967 -174.691 68.483 -150.907 61.7457Z"
            fill="#062865" />
    </g>
    <circle cx="62" cy="62" r="59.2179" stroke="#062865" stroke-width="5.5641" />
    <defs>
        <clipPath id="clip0_102_675">
            <rect x="9.53857" y="9.53845" width="104.923" height="104.923" rx="52.4615" fill="white" />
        </clipPath>
    </defs>
</svg>
    